# xmcd
#
# Track frame offsets:
#	150
#	13165
#	32920
#	52622
#	70867
#	84197
#	100002
#	119977
#	135355
#	154032
#	174207
#	192937
#	207985
#	228415
#	247162
#	264355
#	282982
#	302465
#	319192
#	332392
#
# Disc length: 4677 seconds
#
# Revision: 1
# Processed by: cddbd v1.5.1PL0 Copyright (c) Steve Scherf et al.
# Submitted via: audiograbber 1.83.01
#
DISCID=09124314
DTITLE=Totta Näslund - Bättre begagnat
DYEAR=1900
DGENRE=
TTITLE0=Bortom månen och mars
TTITLE1=Ballad för Torsten och Sanne
TTITLE2=En clown i mina kläder
TTITLE3=På väg igen
TTITLE4=Nå´n dag
TTITLE5=Om du går din väg
TTITLE6=Men bara om min älskade väntar
TTITLE7=Kom tillbaks till Stockholm
TTITLE8=På drift
TTITLE9=Alltid inom mig
TTITLE10=Ride Jonny, ride
TTITLE11=Den röda klänningen
TTITLE12=Farväl
TTITLE13=Utan dej
TTITLE14=Bättre begagnat
TTITLE15=Min lycka har vänt
TTITLE16=Sex fot under
TTITLE17=Hjärtats slutna rum
TTITLE18=Mil efter mil
TTITLE19=Grand Hotel
EXTD=
EXTT0=
EXTT1=
EXTT2=
EXTT3=
EXTT4=
EXTT5=
EXTT6=
EXTT7=
EXTT8=
EXTT9=
EXTT10=
EXTT11=
EXTT12=
EXTT13=
EXTT14=
EXTT15=
EXTT16=
EXTT17=
EXTT18=
EXTT19=
PLAYORDER=
